<?xml version="1.0" encoding="UTF-8"?>
<svg version="1.1" xmlns="http://www.w3.org/2000/svg" width="512" height="512">
<path d="M0 0 C1.37510161 0.00192465 2.75020334 0.00376505 4.12530518 0.00552368 C24.74109495 0.04382034 45.10605901 0.55502341 65.5625 3.3125 C66.87025391 3.48410645 68.17800781 3.65571289 69.52539062 3.83251953 C95.98028102 7.36378097 122.00706132 12.7967509 147.5625 20.5 C148.2638205 20.7101474 148.96514099 20.9202948 149.68771362 21.1368103 C161.59613617 24.73183566 173.76646168 28.52290343 180.984375 39.46875 C185.25594452 47.76426182 185.98189751 57.05347004 183.9140625 66.171875 C180.76059617 74.85064559 175.70433177 80.46536103 167.5625 84.75 C163.16497944 86.76076219 159.44242383 88.13504822 154.5625 88.3125 C153.67433594 88.36148438 152.78617187 88.41046875 151.87109375 88.4609375 C142.41087868 88.78845493 142.41087868 88.78845493 138.5625 85.3125 C136.61586368 82.7464794 136.55479264 81.50133026 136.6875 78.25 C137.74757641 74.69117204 138.35353419 74.09977209 141.5625 72.3125 C145.11935607 71.77433841 148.60298113 71.46188274 152.1875 71.22851562 C158.26615738 70.6969016 162.2924349 68.88524045 166.4375 64.1875 C168.58871167 58.68995906 168.44166065 53.43047794 166.1875 48 C159.23563927 40.88261877 148.74834073 38.56327683 139.4375 35.9375 C138.76843628 35.74651733 138.09937256 35.55553467 137.41003418 35.35876465 C116.08283019 29.2927001 94.56819611 24.68107455 72.625 21.5 C71.94852417 21.40054077 71.27204834 21.30108154 70.57507324 21.1986084 C47.49495193 17.85511432 24.42477388 16.93097676 1.125 17 C-0.84848923 17.00323273 -0.84848923 17.00323273 -2.86184692 17.00653076 C-23.21864403 17.05167136 -43.25237942 17.55890169 -63.4375 20.3125 C-64.15008972 20.40724609 -64.86267944 20.50199219 -65.59686279 20.59960938 C-93.82807364 24.36818391 -121.71550639 30.27106711 -148.8125 39.125 C-149.62589844 39.39046631 -150.43929687 39.65593262 -151.27734375 39.92944336 C-156.68289641 41.80082219 -161.45453873 44.06514389 -165.3125 48.4375 C-167.23927704 53.36148576 -167.55399116 58.41609539 -165.62890625 63.41015625 C-162.93027429 67.8082727 -159.82545411 69.24905585 -155.02579558 70.72749531 C-150.41935071 71.76864064 -145.8736398 71.7193266 -141.16984558 71.68431091 C-139.51483086 71.69004776 -139.51483086 71.69004776 -137.8263815 71.6959005 C-134.14608675 71.70515267 -130.46617143 71.69321463 -126.78588867 71.68139648 C-124.14082687 71.68386542 -121.4957935 71.68754276 -118.85073853 71.69281006 C-113.16396133 71.70194386 -107.47726493 71.70065551 -101.79048729 71.69262505 C-93.56411839 71.68137356 -85.33786413 71.69045136 -77.11150519 71.70518685 C-63.75736285 71.72892942 -50.40323469 71.7423202 -37.04907227 71.74633789 C-36.25073565 71.74658276 -35.45239903 71.74682763 -34.62987039 71.74707992 C-25.71516072 71.74962799 -16.80045213 71.75019133 -7.88574219 71.74914551 C-4.64851888 71.74881244 -1.41129558 71.74852706 1.82592773 71.74829102 C2.62480342 71.74822823 3.42367911 71.74816544 4.24676315 71.74810075 C17.55864443 71.74749634 30.87046015 71.76235648 44.1823141 71.78912407 C52.39084216 71.80494112 60.5991588 71.80717488 68.80768915 71.79199005 C74.42643608 71.78254171 80.04505523 71.78725429 85.6637871 71.80320387 C88.90693531 71.81191794 92.14967307 71.81181215 95.39281654 71.79867744 C98.90544542 71.78539509 102.41717213 71.79644119 105.92976379 71.81370544 C106.95863844 71.80389867 107.98751309 71.79409189 109.04756576 71.78398794 C115.89627393 71.85395506 115.89627393 71.85395506 119.19579601 74.12492466 C121.21751617 77.36093274 121.09557308 79.58098842 120.5625 83.3125 C118.34386971 86.21967073 117.04305071 87.15231643 113.5625 88.3125 C110.71729596 88.40399466 107.89705054 88.43847774 105.05200195 88.42602539 C104.18349609 88.42617142 103.31499023 88.42631744 102.42016602 88.4264679 C99.54701243 88.42577076 96.67392352 88.41798761 93.80078125 88.41015625 C91.80966731 88.40829137 89.81855292 88.40686779 87.82743835 88.40586853 C82.58477514 88.4020489 77.34213959 88.39222332 72.0994873 88.38116455 C65.81026532 88.36914086 59.52103408 88.36454555 53.23180389 88.35871124 C43.67535002 88.3490113 34.11895685 88.32985084 24.5625 88.3125 C24.5625 101.5125 24.5625 114.7125 24.5625 128.3125 C29.23937988 128.28893433 29.23937988 128.28893433 34.01074219 128.26489258 C44.34434806 128.21505016 54.67795942 128.18199258 65.0116539 128.15706348 C71.27329651 128.14144752 77.53481533 128.12028372 83.79638672 128.08618164 C89.84589088 128.05344296 95.89527641 128.03561641 101.94486237 128.02786827 C104.24598303 128.02235075 106.54709764 128.01157674 108.84816742 127.99530983 C129.18416432 127.85734423 144.82494999 129.29608961 160.27734375 143.96484375 C172.09770035 156.10849215 176.92236727 169.25469082 176.7578125 186.03125 C176.75356766 187.678974 176.75356766 187.678974 176.74923706 189.35998535 C176.73810486 192.844271 176.71301298 196.32829296 176.6875 199.8125 C176.67746121 202.1848921 176.66833694 204.55728826 176.66015625 206.9296875 C176.63989593 212.72413993 176.60073332 218.51802722 176.5625 224.3125 C184.4825 224.3125 192.4025 224.3125 200.5625 224.3125 C200.53929687 222.33507812 200.51609375 220.35765625 200.4921875 218.3203125 C200.47826222 216.37077339 200.46441507 214.42123295 200.45263672 212.47167969 C200.43782409 210.48105363 200.41239008 208.49051563 200.38671875 206.5 C200.32824489 194.92217636 200.73014821 185.33523125 208.5625 176.3125 C215.60372265 169.76219925 222.53568753 167.69311551 232.109375 167.87890625 C240.13309753 168.88640987 246.58305637 172.57959466 251.6875 178.8125 C255.95436445 184.67147805 256.85958163 190.40161352 256.83665466 197.52154541 C256.84189134 198.33224322 256.84712802 199.14294103 256.85252339 199.97820544 C256.86748812 202.68636701 256.86822776 205.39433904 256.86889648 208.10253906 C256.87652037 210.04776833 256.88494826 211.99299458 256.89411926 213.93821716 C256.9160492 219.2172964 256.92486122 224.49631771 256.92994571 229.77543736 C256.93359122 233.07583107 256.93983232 236.37620965 256.9469471 239.6765976 C256.97143688 251.19700282 256.98449237 262.71736305 256.98803711 274.23779297 C256.99167144 284.96579492 257.02156087 295.69351062 257.06344169 306.4214251 C257.09816601 315.64031967 257.11358593 324.85911947 257.11428314 334.07807899 C257.11507525 339.58037323 257.12378389 345.08237585 257.15228081 350.58460236 C257.17849778 355.76233247 257.1806462 360.9395299 257.16462517 366.11729622 C257.16281355 368.01270524 257.16947535 369.90814516 257.18544388 371.80348778 C257.34526176 392.01209262 257.34526176 392.01209262 249.61879635 400.43019485 C243.45756583 406.42990638 237.62561632 408.433698 229.125 408.75 C220.76014434 408.52758187 214.29696659 405.80695187 208.1328125 400.14453125 C200.61464711 391.37333829 200.40934887 381.46814595 200.44897461 370.51196289 C200.44882858 369.44780151 200.44868256 368.38364014 200.4485321 367.28723145 C200.44922612 363.78651863 200.45699455 360.28585971 200.46484375 356.78515625 C200.46670975 354.35135426 200.46813279 351.91755189 200.46913147 349.48374939 C200.47294234 343.09035193 200.48276041 336.69697732 200.49383545 330.30358887 C200.50408033 323.77466135 200.50863568 317.24573012 200.51367188 310.71679688 C200.52438398 297.91535294 200.54196919 285.11393195 200.5625 272.3125 C192.6425 272.3125 184.7225 272.3125 176.5625 272.3125 C176.57138245 274.43401993 176.58026489 276.55553986 176.5894165 278.74134827 C176.67132093 298.7653172 176.7307599 318.78926394 176.76974869 338.81336308 C176.79032673 349.10716959 176.81835583 359.40085276 176.86425781 369.69458008 C176.90427182 378.67222237 176.92996735 387.64977529 176.93885398 396.62750429 C176.94404418 401.37606565 176.95614258 406.12437141 176.98542023 410.87285042 C177.01282011 415.35360646 177.02089603 419.83400463 177.01493073 424.3148365 C177.01602008 425.94852654 177.02382636 427.5822301 177.0393219 429.21584702 C177.21486986 448.69900584 172.29763035 465.14002412 159.5625 480.3125 C158.4796875 481.7975 158.4796875 481.7975 157.375 483.3125 C142.5066984 500.74764194 119.04983995 505.06305224 97.5 507.4375 C96.05316785 507.60409833 94.6063912 507.77117924 93.15966797 507.9387207 C81.31668078 509.29367237 69.45697029 510.51286374 57.5625 511.3125 C55.79132813 511.44386353 55.79132813 511.44386353 53.984375 511.57788086 C38.13469261 512.64623368 22.23878983 512.49982666 6.36132812 512.49780273 C3.01687149 512.49772196 -0.32744674 512.50459916 -3.671875 512.51831055 C-31.67618617 512.63116042 -59.40808938 511.6567339 -87.25 508.375 C-88.00024445 508.28846161 -88.75048889 508.20192322 -89.52346802 508.11276245 C-115.50399298 505.11246688 -140.74623511 501.74973624 -158.78125 480.55859375 C-171.73255454 464.00250944 -176.08637607 447.35464901 -175.89160156 426.82055664 C-175.89047014 425.12378466 -175.89111268 423.42701072 -175.89337158 421.73023987 C-175.89450817 417.17324568 -175.87117215 412.61668211 -175.84307575 408.05978703 C-175.81788391 403.27925568 -175.8157062 398.49871188 -175.81097412 393.71812439 C-175.79859617 384.6874582 -175.76584549 375.65698825 -175.72557616 366.62640804 C-175.68069616 356.33607822 -175.6588308 346.04573848 -175.63879442 335.75533497 C-175.59710764 314.60761128 -175.52604133 293.46007499 -175.4375 272.3125 C-183.3575 272.3125 -191.2775 272.3125 -199.4375 272.3125 C-199.4375 275.2825 -199.4375 278.2525 -199.4375 281.3125 C-200.52699912 285.25145836 -200.96455994 285.99720663 -204.4375 288.3125 C-208.04880057 288.78353921 -209.9002087 288.61407416 -213.09457397 286.82112122 C-216.33196618 283.35477585 -216.12381886 280.30607279 -216.04931641 275.79956055 C-216.05498123 274.94215271 -216.06064606 274.08474487 -216.06648254 273.20135498 C-216.07998682 270.36686508 -216.05903426 267.53365292 -216.0390625 264.69921875 C-216.04456262 262.72629419 -216.05268716 260.75337535 -216.06332397 258.7804718 C-216.08623385 253.58312981 -216.08198251 248.38620793 -216.06951904 243.18884277 C-216.05123205 234.88082136 -216.06122014 226.57304792 -216.09537888 218.26508522 C-216.10147182 215.36734329 -216.08823389 212.47013361 -216.07339478 209.57243347 C-216.07634417 207.78616195 -216.07999969 205.9998914 -216.08447266 204.21362305 C-216.07053719 203.01247612 -216.07053719 203.01247612 -216.05632019 201.7870636 C-216.0931483 196.56892167 -216.9901336 192.94663168 -219.4375 188.3125 C-222.35721527 185.79830074 -224.09598838 185.34909053 -227.9375 184.9375 C-231.66695665 185.33708464 -233.49192338 186.04019804 -236.4375 188.3125 C-239.73160245 193.25365367 -239.58407897 198.06558091 -239.57121277 203.85874939 C-239.57347833 204.61016175 -239.57574388 205.36157412 -239.57807809 206.13575655 C-239.58439903 208.64903245 -239.58358996 211.16225415 -239.58276367 213.67553711 C-239.58575631 215.47932505 -239.58915909 217.28311235 -239.59294128 219.0868988 C-239.60177387 223.98354706 -239.60411906 228.88017784 -239.60475707 233.7768333 C-239.60570691 237.86488548 -239.60938601 241.9529336 -239.61292917 246.04098421 C-239.62107059 255.68512113 -239.62351365 265.32924871 -239.62280273 274.97338867 C-239.62220172 284.92256836 -239.63275902 294.87169387 -239.6485464 304.82085985 C-239.6616192 313.36366148 -239.66698675 321.9064454 -239.66634732 330.44925696 C-239.6660923 335.55115607 -239.6689461 340.65300701 -239.67952538 345.75489616 C-239.68920218 350.55244617 -239.68928839 355.3499019 -239.68200874 360.14745522 C-239.68096245 361.90746574 -239.68332845 363.66748213 -239.6893692 365.4274826 C-239.69708564 367.83152169 -239.69244672 370.23523491 -239.68473816 372.63926697 C-239.68988172 373.33431381 -239.69502529 374.02936065 -239.70032471 374.74546951 C-239.66236346 380.10937616 -239.00513807 384.49991848 -235.4375 388.625 C-231.78632605 391.70567802 -229.17367597 391.63359668 -224.4375 391.3125 C-220.688814 389.86414405 -219.6645024 388.75520753 -217.81893921 385.15592957 C-216.27676222 381.35622133 -216.07157552 377.99514543 -216.08447266 373.88012695 C-216.08231247 373.17351929 -216.08015228 372.46691162 -216.07792664 371.7388916 C-216.07485847 370.21770993 -216.0783895 368.69650307 -216.08794022 367.17534828 C-216.10175937 364.76646343 -216.09519593 362.35839476 -216.08309937 359.94950867 C-216.05223812 353.10584953 -216.05707003 346.26238666 -216.07714844 339.41870117 C-216.08805875 335.22180777 -216.07489956 331.02553318 -216.04725266 326.82872581 C-216.04181293 325.23274305 -216.04587402 323.63669834 -216.05965042 322.04076576 C-216.0786794 319.81205074 -216.0673175 317.5853689 -216.04931641 315.35668945 C-216.05289658 313.45642754 -216.05289658 313.45642754 -216.05654907 311.51777649 C-215.4375 308.3125 -215.4375 308.3125 -213.12582397 305.86833191 C-210.4375 304.3125 -210.4375 304.3125 -206.8125 304.375 C-202.29464286 305.62996032 -202.29464286 305.62996032 -200.4375 308.3125 C-199.30269234 311.71692299 -199.30357749 314.32984299 -199.29223633 317.92016602 C-199.28887772 318.58729111 -199.2855191 319.2544162 -199.28205872 319.9417572 C-199.27255262 322.14999248 -199.27060518 324.35815177 -199.26953125 326.56640625 C-199.2663163 328.10757986 -199.26295205 329.64875317 -199.25944519 331.18992615 C-199.25345327 334.42553412 -199.25160514 337.66111539 -199.25219727 340.89672852 C-199.25229841 345.01989829 -199.23869665 349.14289399 -199.22142506 353.26602268 C-199.21023674 356.45329047 -199.20828021 359.64051725 -199.20880699 362.82780266 C-199.20763521 364.34626803 -199.203259 365.86473475 -199.19547462 367.38318062 C-199.0872482 390.69315706 -199.0872482 390.69315706 -207.4375 400.3125 C-214.61900447 406.99330197 -221.4571381 408.80204584 -231.18359375 408.625 C-238.92654778 407.88137896 -245.26640787 404.02042665 -250.4375 398.3125 C-257.07282928 389.52866294 -256.13185595 379.47932133 -256.05273438 369.03662109 C-256.05623948 367.08755511 -256.06190244 365.138492 -256.06954956 363.18943787 C-256.0837492 357.91880817 -256.06678431 352.64870321 -256.04326439 347.37812376 C-256.02309959 341.85255894 -256.02903778 336.3270147 -256.03137207 330.80142212 C-256.03131857 321.52605577 -256.01160128 312.25089361 -255.97949219 302.97558594 C-255.94258081 292.26114758 -255.93382042 281.54697634 -255.9407897 270.8324827 C-255.9471 260.51040257 -255.936332 250.18841377 -255.91682434 239.86635208 C-255.90866248 235.47978028 -255.90593855 231.09325523 -255.90751648 226.70667648 C-255.90839697 221.5404494 -255.89413476 216.37447523 -255.86828995 211.2083149 C-255.86114328 209.31531183 -255.85903728 207.42228182 -255.86240768 205.52926826 C-255.86613777 202.93992487 -255.85132242 200.35131338 -255.83190918 197.76205444 C-255.83723711 197.01787966 -255.84256503 196.27370488 -255.84805441 195.50697935 C-255.7527403 188.10890078 -253.52490673 181.46418579 -248.4140625 175.98828125 C-241.30007825 169.95685982 -233.75632337 167.3717554 -224.48046875 167.859375 C-216.98407569 168.97565433 -210.39109056 172.53331101 -205.4375 178.3125 C-200.49044961 186.06629659 -199.29919349 193.19353637 -199.33984375 202.33984375 C-199.34306641 203.62568359 -199.34628906 204.91152344 -199.34960938 206.23632812 C-199.35796198 207.57421945 -199.36642689 208.91211007 -199.375 210.25 C-199.38002341 211.61523274 -199.38458483 212.98046726 -199.38867188 214.34570312 C-199.4004114 217.66798788 -199.41834545 220.99024972 -199.4375 224.3125 C-191.5175 224.3125 -183.5975 224.3125 -175.4375 224.3125 C-175.48390625 220.85394531 -175.5303125 217.39539063 -175.578125 213.83203125 C-175.60941484 210.4428046 -175.63364891 207.05359471 -175.65722656 203.66430664 C-175.67721041 201.32796907 -175.70440688 198.99168067 -175.73925781 196.65551758 C-176.03847137 176.06698494 -174.46529459 160.25544968 -159.8203125 144.66796875 C-148.82739463 133.80119912 -136.13205109 128.1111599 -120.65428162 128.06365967 C-119.23007652 128.0744455 -119.23007652 128.0744455 -117.77709961 128.08544922 C-116.75166046 128.08515717 -115.72622131 128.08486511 -114.66970825 128.08456421 C-111.30966471 128.08594786 -107.94984814 128.10146345 -104.58984375 128.1171875 C-102.24858216 128.12092106 -99.90731901 128.12376641 -97.5660553 128.12576294 C-91.42582836 128.13337236 -85.28569713 128.15299766 -79.14550781 128.1751709 C-72.87110692 128.19568743 -66.59669045 128.20477705 -60.32226562 128.21484375 C-48.02729509 128.23624616 -35.73242051 128.27140629 -23.4375 128.3125 C-23.4375 115.1125 -23.4375 101.9125 -23.4375 88.3125 C-29.26607666 88.32821045 -29.26607666 88.32821045 -35.21240234 88.34423828 C-48.06461265 88.37740856 -60.91682233 88.39958391 -73.76906395 88.41612434 C-81.55976932 88.42641815 -89.35043402 88.44044207 -97.14111328 88.46337891 C-103.93485277 88.483371 -110.72856279 88.4962302 -117.52233088 88.50067699 C-121.11650088 88.50327455 -124.71058659 88.50934005 -128.30472946 88.52396011 C-132.32607444 88.54018385 -136.34727471 88.54047597 -140.36865234 88.53955078 C-141.54829559 88.54674133 -142.72793884 88.55393188 -143.94332886 88.56134033 C-156.07024682 88.53123805 -165.90275734 86.92561105 -175.2578125 78.71484375 C-181.28281385 72.31138754 -183.65436819 65.00464666 -183.9375 56.3125 C-183.61826729 46.81790119 -180.82056815 39.89172233 -174.28125 32.9921875 C-151.79097028 12.50316149 -102.25820083 8.62503315 -72.9375 4.5 C-72.23887848 4.40054077 -71.54025696 4.30108154 -70.82046509 4.1986084 C-47.26288778 0.89421334 -23.77134013 -0.06625639 0 0 Z M-7.4375 88.3125 C-7.4375 101.5125 -7.4375 114.7125 -7.4375 128.3125 C-2.1575 128.3125 3.1225 128.3125 8.5625 128.3125 C8.5625 115.1125 8.5625 101.9125 8.5625 88.3125 C3.2825 88.3125 -1.9975 88.3125 -7.4375 88.3125 Z M-150.87109375 158.32421875 C-153.74160825 161.96783941 -155.67474163 166.04094695 -157.4375 170.3125 C-157.78349558 171.13326995 -158.12949116 171.9540399 -158.48597145 172.79968166 C-159.78350751 177.58987787 -159.72009956 182.10330387 -159.70492554 187.04493713 C-159.70945665 188.12711626 -159.71398776 189.20929538 -159.71865618 190.3242678 C-159.73131857 193.95132934 -159.72967858 197.57824107 -159.72802734 201.20532227 C-159.73401156 203.80577284 -159.74081686 206.40622164 -159.74838257 209.00666809 C-159.76498038 215.33890594 -159.77049163 221.67110655 -159.77160732 228.00336433 C-159.77255871 233.15424043 -159.77667357 238.30510427 -159.78300858 243.45597649 C-159.80062042 258.07446275 -159.80984795 272.69291968 -159.80834763 287.31141663 C-159.80826772 288.09914963 -159.8081878 288.88688263 -159.80810547 289.69848633 C-159.80802371 290.48718681 -159.80794195 291.2758873 -159.80785771 292.0884878 C-159.80704561 304.85723106 -159.82616403 317.62585613 -159.8543822 330.39456523 C-159.8831584 343.51992039 -159.89691978 356.64521802 -159.89519465 369.7706055 C-159.89453221 377.13354955 -159.89995978 384.49636982 -159.92155075 391.85928535 C-159.94174251 398.78929959 -159.94104048 405.71904913 -159.92651749 412.64907646 C-159.92443113 415.18662778 -159.92911983 417.72419551 -159.9412384 420.26171875 C-160.01456478 436.6851662 -159.51133806 450.09775679 -150.4375 464.3125 C-150.09332031 464.90289062 -149.74914062 465.49328125 -149.39453125 466.1015625 C-141.61181542 478.4078063 -127.55148887 485.32122041 -113.85229492 488.60742188 C-107.63785458 489.89056363 -101.36056081 490.63612973 -95.0625 491.375 C-93.64231033 491.54643503 -92.22214459 491.71806836 -90.80200195 491.88989258 C-82.75281434 492.85366217 -74.69705332 493.7490594 -66.625 494.5 C-65.85945801 494.57162354 -65.09391602 494.64324707 -64.30517578 494.71704102 C-61.6840838 494.94358572 -59.06214128 495.13142328 -56.4375 495.3125 C-55.26630615 495.40007568 -54.0951123 495.48765137 -52.88842773 495.57788086 C-37.01131438 496.64999031 -21.08642528 496.49982767 -5.18139648 496.49780273 C-1.83010409 496.4977219 1.52105034 496.50460848 4.87231445 496.51831055 C31.66206921 496.62598113 58.21179244 495.80963714 84.84545898 492.61743164 C86.92657281 492.36883955 89.0089591 492.13405846 91.09179688 491.90039062 C98.32803751 491.06969734 105.51992536 490.05581383 112.69921875 488.82421875 C113.73711296 488.64996117 113.73711296 488.64996117 114.79597473 488.47218323 C125.44289542 486.57557532 133.43411985 482.2703934 141.5625 475.3125 C142.59375 474.57 143.625 473.8275 144.6875 473.0625 C154.0778847 464.0803929 160.47949938 450.22262766 160.81976891 437.20462322 C160.83327324 435.24515762 160.83596922 433.2855984 160.82992554 431.32609558 C160.83672221 429.69814693 160.83672221 429.69814693 160.84365618 428.03731042 C160.8562854 424.41179284 160.85468074 420.78642577 160.85302734 417.16088867 C160.85901347 414.55689807 160.86581921 411.95290923 160.87338257 409.34892273 C160.88995813 403.01629329 160.89549054 396.6837011 160.89660732 390.35105177 C160.89755937 385.20115981 160.90167745 380.05128008 160.90800858 374.90139198 C160.92561104 360.2845907 160.93484892 345.66781872 160.93334763 331.05100676 C160.93326772 330.26387912 160.9331878 329.47675148 160.93310547 328.66577148 C160.93298283 327.48363033 160.93298283 327.48363033 160.93285771 326.27760754 C160.93204493 313.50764038 160.95118306 300.7377912 160.9793822 287.96785816 C161.00814147 274.84018932 161.02192085 261.71257796 161.02019465 248.58487684 C161.01953183 241.2209085 161.02497659 233.85706388 161.04655075 226.49312401 C161.06671488 219.56637249 161.06605782 212.63988593 161.05151749 205.71312141 C161.04942827 203.17472833 161.05413692 200.6363189 161.0662384 198.0979538 C161.08171995 194.62494913 161.07236236 191.1528413 161.05697632 187.67985535 C161.07240701 186.1836143 161.07240701 186.1836143 161.08814943 184.65714616 C160.97439206 172.98714549 156.82780421 163.65579554 148.6796875 155.40625 C139.34343103 146.76563617 129.6410965 144.00266553 117.14518738 144.05180359 C115.59096595 144.04606527 115.59096595 144.04606527 114.00534612 144.04021102 C110.54021465 144.02990854 107.07524974 144.03386801 103.61010742 144.0378418 C101.1228673 144.03349378 98.63562852 144.02831033 96.14839172 144.02235413 C90.09735569 144.01035239 84.04638489 144.0078117 77.99534293 144.01015439 C73.07472853 144.01193951 68.15412758 144.01018374 63.23351479 144.00592995 C62.18185564 144.00503716 62.18185564 144.00503716 61.10895086 144.00412634 C59.68450091 144.00291455 58.26005096 144.00170042 56.83560101 144.00048397 C43.48416258 143.98961363 30.13274943 143.99176836 16.78130958 143.99786881 C4.57967642 144.00303595 -7.62187687 143.991787 -19.82349423 143.97277059 C-32.36464931 143.95337552 -44.90576662 143.94513922 -57.44693679 143.94889385 C-64.48278189 143.95080356 -71.51855903 143.9483409 -78.55439186 143.93417931 C-85.17247274 143.92099298 -91.79042043 143.92354822 -98.40851021 143.93659019 C-100.83444015 143.93895492 -103.26038134 143.93622506 -105.68629837 143.92796707 C-109.00412903 143.91748932 -112.32142474 143.92560912 -115.63923645 143.9382782 C-116.59363406 143.93090391 -117.54803168 143.92352963 -118.53135043 143.91593188 C-131.57681522 144.02034681 -141.88494767 148.92108213 -150.87109375 158.32421875 Z M219.5625 188.3125 C216.93790332 193.34704445 216.12706122 197.48082419 216.18154907 203.16845703 C216.1768691 203.92903978 216.17218913 204.68962254 216.16736734 205.47325325 C216.15546158 208.00578705 216.164857 210.53777528 216.17431641 213.0703125 C216.17024874 214.8924796 216.16490576 216.71464423 216.15838623 218.5368042 C216.14473011 223.47478046 216.15000427 228.41256831 216.15952349 233.35054779 C216.16712889 238.52292888 216.16007202 243.69529405 216.15536499 248.86767578 C216.14991001 257.5530893 216.15709231 266.23842624 216.17138672 274.92382812 C216.18771271 284.95941111 216.18242403 294.99481123 216.1659075 305.03038979 C216.15228532 313.65309016 216.15037657 322.27573556 216.15822351 330.89844322 C216.16289598 336.04562756 216.16353655 341.192726 216.15361404 346.33990479 C216.14493603 351.17940056 216.15098162 356.018661 216.16829681 360.85813141 C216.17225718 362.63223124 216.17113532 364.40635094 216.16450882 366.18044281 C216.15628533 368.6060752 216.16662411 371.03095806 216.18154907 373.45654297 C216.17485691 374.15509462 216.16816474 374.85364628 216.16126978 375.57336617 C216.22089071 380.58441739 217.28181383 383.93765033 219.5625 388.3125 C222.78630208 391.16996094 224.79605173 392.20300739 229.0625 392.8125 C233.21142101 392.219797 235.33200042 390.9419764 238.5625 388.3125 C241.85660245 383.37134633 241.70907897 378.55941909 241.69621277 372.76625061 C241.69847833 372.01483825 241.70074388 371.26342588 241.70307809 370.48924345 C241.70939903 367.97596755 241.70858996 365.46274585 241.70776367 362.94946289 C241.71075631 361.14567495 241.71415909 359.34188765 241.71794128 357.5381012 C241.72677387 352.64145294 241.72911906 347.74482216 241.72975707 342.8481667 C241.73070691 338.76011452 241.73438601 334.6720664 241.73792917 330.58401579 C241.74607059 320.93987887 241.74851365 311.29575129 241.74780273 301.65161133 C241.74720172 291.70243164 241.75775902 281.75330613 241.7735464 271.80414015 C241.7866192 263.26133852 241.79198675 254.7185546 241.79134732 246.17574304 C241.7910923 241.07384393 241.7939461 235.97199299 241.80452538 230.87010384 C241.81420218 226.07255383 241.81428839 221.2750981 241.80700874 216.47754478 C241.80596245 214.71753426 241.80832845 212.95751787 241.8143692 211.1975174 C241.82208564 208.79347831 241.81744672 206.38976509 241.80973816 203.98573303 C241.81488172 203.29068619 241.82002529 202.59563935 241.82532471 201.87953049 C241.78416421 196.06357109 240.96485853 191.89015335 237.0625 187.5 C234.09352993 184.90215119 233.24221136 184.37785686 229.3125 184 C224.79729075 184.37626744 222.94107172 185.31785689 219.5625 188.3125 Z M-199.4375 240.3125 C-199.4375 245.5925 -199.4375 250.8725 -199.4375 256.3125 C-191.5175 256.3125 -183.5975 256.3125 -175.4375 256.3125 C-175.4375 251.0325 -175.4375 245.7525 -175.4375 240.3125 C-183.3575 240.3125 -191.2775 240.3125 -199.4375 240.3125 Z M176.5625 240.3125 C176.5625 245.5925 176.5625 250.8725 176.5625 256.3125 C184.4825 256.3125 192.4025 256.3125 200.5625 256.3125 C200.5625 251.0325 200.5625 245.7525 200.5625 240.3125 C192.6425 240.3125 184.7225 240.3125 176.5625 240.3125 Z " fill="#000000" transform="translate(255.4375,-0.3125)"/>
</svg>
